<?xml version="1.0" encoding="UTF-8"?>
<svg xmlns="http://www.w3.org/2000/svg" xmlns:xlink="http://www.w3.org/1999/xlink" 
     width="1000" height="700" viewBox="0 0 1000 700">
  <title>Forward Spar Assembly - Exploded View</title>
  <desc>SVG Template for Forward Spar Assembly - Callouts 1-11. Illustrator should replace geometry while preserving callout IDs.</desc>
  
  <rect width="1000" height="700" fill="#f5f5f5"/>
  
  <g id="geometry-placeholder">
    <text x="500" y="50" font-size="20" font-weight="bold" text-anchor="middle" fill="#333">
      FORWARD SPAR ASSEMBLY - EXPLODED VIEW
    </text>
    <text x="500" y="80" font-size="14" text-anchor="middle" fill="#666">
      Replace this placeholder with detailed spar assembly geometry
    </text>
    <rect x="100" y="120" width="800" height="500" fill="none" stroke="#999" stroke-width="2" stroke-dasharray="5,5"/>
  </g>
  
  <g id="callout-1">
    <circle cx="500" cy="350" r="18" fill="white" stroke="#0066cc" stroke-width="2"/>
    <text x="500" y="357" font-size="18" font-weight="bold" text-anchor="middle" fill="#0066cc">1</text>
    <line x1="500" y1="368" x2="500" y2="430" stroke="#0066cc" stroke-width="2"/>
    <text x="500" y="445" font-size="13" text-anchor="middle" fill="#333">Forward Spar Assembly</text>
  </g>
  
  <g id="callout-2">
    <circle cx="250" cy="200" r="15" fill="white" stroke="#0066cc" stroke-width="2"/>
    <text x="250" y="206" font-size="16" font-weight="bold" text-anchor="middle" fill="#0066cc">2</text>
    <line x1="235" y1="200" x2="180" y2="180" stroke="#0066cc" stroke-width="1.5"/>
    <text x="175" y="183" font-size="12" text-anchor="end" fill="#333">Upper Cap, LH</text>
  </g>
  
  <g id="callout-3">
    <circle cx="750" cy="200" r="15" fill="white" stroke="#0066cc" stroke-width="2"/>
    <text x="750" y="206" font-size="16" font-weight="bold" text-anchor="middle" fill="#0066cc">3</text>
    <line x1="765" y1="200" x2="820" y2="180" stroke="#0066cc" stroke-width="1.5"/>
    <text x="825" y="183" font-size="12" fill="#333">Upper Cap, RH</text>
  </g>
  
  <g id="callout-4">
    <circle cx="250" cy="500" r="15" fill="white" stroke="#0066cc" stroke-width="2"/>
    <text x="250" y="506" font-size="16" font-weight="bold" text-anchor="middle" fill="#0066cc">4</text>
    <line x1="235" y1="500" x2="180" y2="520" stroke="#0066cc" stroke-width="1.5"/>
    <text x="175" y="523" font-size="12" text-anchor="end" fill="#333">Lower Cap, LH</text>
  </g>
  
  <g id="callout-5">
    <circle cx="750" cy="500" r="15" fill="white" stroke="#0066cc" stroke-width="2"/>
    <text x="750" y="506" font-size="16" font-weight="bold" text-anchor="middle" fill="#0066cc">5</text>
    <line x1="765" y1="500" x2="820" y2="520" stroke="#0066cc" stroke-width="1.5"/>
    <text x="825" y="523" font-size="12" fill="#333">Lower Cap, RH</text>
  </g>
  
  <g id="callout-6">
    <circle cx="500" cy="280" r="15" fill="white" stroke="#0066cc" stroke-width="2"/>
    <text x="500" y="286" font-size="16" font-weight="bold" text-anchor="middle" fill="#0066cc">6</text>
    <line x1="485" y1="280" x2="420" y2="260" stroke="#0066cc" stroke-width="1.5"/>
    <text x="415" y="263" font-size="12" text-anchor="end" fill="#333">Web, Composite</text>
  </g>
  
  <g id="callout-7">
    <circle cx="150" cy="350" r="15" fill="white" stroke="#0066cc" stroke-width="2"/>
    <text x="150" y="356" font-size="16" font-weight="bold" text-anchor="middle" fill="#0066cc">7</text>
    <line x1="135" y1="350" x2="70" y2="350" stroke="#0066cc" stroke-width="1.5"/>
    <text x="65" y="353" font-size="12" text-anchor="end" fill="#333">Root Fitting, Inboard</text>
  </g>
  
  <g id="callout-8">
    <circle cx="600" cy="320" r="15" fill="white" stroke="#0066cc" stroke-width="2"/>
    <text x="600" y="326" font-size="16" font-weight="bold" text-anchor="middle" fill="#0066cc">8</text>
    <line x1="615" y1="320" x2="670" y2="300" stroke="#0066cc" stroke-width="1.5"/>
    <text x="675" y="303" font-size="12" fill="#333">Shear Tie, Midspan (typ)</text>
  </g>
  
  <g id="callout-9">
    <circle cx="400" cy="380" r="15" fill="white" stroke="#0066cc" stroke-width="2"/>
    <text x="400" y="386" font-size="16" font-weight="bold" text-anchor="middle" fill="#0066cc">9</text>
    <line x1="385" y1="380" x2="330" y2="400" stroke="#0066cc" stroke-width="1.5"/>
    <text x="325" y="403" font-size="12" text-anchor="end" fill="#333">Attachment Bracket, Rib (typ)</text>
  </g>
  
  <g id="callout-10">
    <circle cx="700" cy="400" r="15" fill="white" stroke="#0066cc" stroke-width="2"/>
    <text x="700" y="406" font-size="16" font-weight="bold" text-anchor="middle" fill="#0066cc">10</text>
    <line x1="715" y1="400" x2="770" y2="420" stroke="#0066cc" stroke-width="1.5"/>
    <text x="775" y="423" font-size="12" fill="#333">Fastener Set (typ)</text>
  </g>
  
  <g id="callout-11">
    <circle cx="850" cy="350" r="15" fill="white" stroke="#cc6600" stroke-width="2"/>
    <text x="850" y="356" font-size="16" font-weight="bold" text-anchor="middle" fill="#cc6600">11</text>
    <line x1="865" y1="350" x2="920" y2="350" stroke="#cc6600" stroke-width="1.5"/>
    <text x="925" y="353" font-size="12" fill="#333">QSS Sensor Patch Kit (opt)</text>
  </g>
  
  <g id="legend">
    <rect x="20" y="630" width="250" height="60" fill="white" stroke="#999" stroke-width="1"/>
    <text x="30" y="650" font-size="11" font-weight="bold" fill="#333">Template Version: 1.0</text>
    <text x="30" y="665" font-size="10" fill="#666">Callout IDs: 1-11 (Sheet 1 Assembly)</text>
    <text x="30" y="680" font-size="10" fill="#666">FS-ASSY / BWQ1-57-10-10</text>
  </g>
</svg>
